<svg width="22" height="16" viewBox="3 6 22 16" fill="none" xmlns="http://www.w3.org/2000/svg">
<rect x="3" y="6" width="22" height="16" rx="2" fill="#249F58"/>
<path fill-rule="evenodd" clip-rule="evenodd" d="M19.7619 16.6666V15.6H8.23809L10.3333 16.6666H16.619C16.619 17.2554 17.323 17.7333 18.1905 17.7333C19.0579 17.7333 19.7619 17.2554 19.7619 16.6666ZM12.1457 10.1664C12.1331 10.1664 12.1143 10.1728 12.0902 10.1877C12.0336 10.2261 11.9226 10.3445 11.9184 10.481C11.9152 10.5589 11.9006 10.5589 11.9498 10.609C11.9854 10.6602 12.0231 10.656 12.0944 10.6165C12.1363 10.5845 12.1499 10.5664 12.1646 10.5141C12.1813 10.4288 12.0734 10.5568 12.0598 10.4586C12.0357 10.369 12.1049 10.3306 12.1698 10.2453C12.1719 10.2026 12.1719 10.1706 12.1457 10.1685V10.1664ZM13.1965 10.1717C13.1755 10.176 13.1514 10.2037 13.1168 10.2656C13.0928 10.3317 12.9869 10.432 13.0645 10.6389C13.1252 10.7701 13.1514 10.9824 13.1231 11.2202C13.0791 11.2874 13.0708 11.3109 13.0131 11.3781C12.9335 11.4666 12.8455 11.4442 12.7806 11.4101C12.7177 11.3674 12.6695 11.3461 12.6412 11.2117C12.6465 10.9984 12.659 10.6442 12.6203 10.5696C12.5637 10.4544 12.4694 10.4949 12.4296 10.5301C12.2379 10.7114 12.1426 11.0133 12.0839 11.2554C12.0315 11.4304 11.9739 11.3792 11.9341 11.3088C11.8367 11.2149 11.8293 10.4874 11.712 10.608C11.5234 11.1562 11.8199 11.7568 12.0263 11.6981C12.1729 11.7621 12.2672 11.4741 12.328 11.1594C12.3699 11.0709 12.4013 11.0602 12.4223 11.1061C12.417 11.5242 12.4537 11.6181 12.5585 11.744C12.7931 11.9296 12.988 11.7674 13.0037 11.7525L13.187 11.5669C13.2289 11.5242 13.2813 11.52 13.3389 11.5584C13.3955 11.6117 13.3882 11.7002 13.5066 11.761C13.6092 11.8037 13.824 11.7717 13.8732 11.6832C13.9413 11.5658 13.957 11.5253 13.9885 11.4805C14.0367 11.4165 14.1194 11.4453 14.1194 11.4656C14.1121 11.5029 14.0639 11.5402 14.0964 11.6042C14.154 11.6469 14.1676 11.6192 14.2011 11.6096C14.3206 11.552 14.4107 11.2874 14.4107 11.2874C14.4159 11.1893 14.3614 11.1968 14.3269 11.217C14.2797 11.2458 14.2776 11.2554 14.2326 11.2842C14.1729 11.2928 14.0597 11.3322 14.0042 11.2437C13.9466 11.137 13.9466 10.9898 13.9026 10.881C13.9026 10.8746 13.8261 10.7136 13.8963 10.704C13.9309 10.7104 14.0084 10.7306 14.0199 10.6656C14.0576 10.6016 13.9392 10.4202 13.8586 10.3306C13.7894 10.2528 13.693 10.2432 13.5998 10.3221C13.5338 10.384 13.5443 10.4522 13.5307 10.5173C13.5149 10.592 13.5181 10.6848 13.5935 10.784C13.6585 10.9141 13.7769 11.0826 13.737 11.3194C13.737 11.3194 13.6689 11.4325 13.5485 11.4176C13.4961 11.4069 13.4144 11.3856 13.3704 11.0549C13.3389 10.8064 13.3788 10.4576 13.2761 10.2944C13.252 10.2336 13.2321 10.1738 13.1986 10.177L13.1965 10.1717ZM12.8633 10.1994C12.8319 10.2026 12.7973 10.24 12.769 10.3114C12.7449 10.3669 12.7146 10.6528 12.7198 10.6528C12.6989 10.7381 12.8068 10.7744 12.856 10.6656C12.9293 10.4629 12.9293 10.3776 12.9335 10.2944C12.923 10.2304 12.8948 10.1984 12.8633 10.2005V10.1994ZM14.0922 10.2208C14.0608 10.225 14.0346 10.2442 14.0251 10.2933C14.0115 10.4064 14.0189 10.4693 14.0377 10.5642C14.0513 10.6282 14.1425 10.7328 14.1865 10.7946C14.3991 11.0858 14.6055 11.3781 14.8025 11.68C14.8339 11.9061 14.8549 12.1258 14.8706 12.3456C14.9041 12.8256 14.9125 13.4229 14.8842 13.9296C14.9722 13.9328 15.1147 13.7834 15.1639 13.5669C15.1953 13.264 15.1534 12.6496 15.1492 12.4704L15.1388 12.2165C15.3692 12.6005 15.5913 13.0058 15.8092 13.4496C15.8899 13.4112 15.8721 12.9536 15.826 12.8896C15.65 12.5056 15.4069 12.1258 15.3305 11.9797C15.3022 11.9264 15.2069 11.7802 15.0948 11.6106C15.0738 11.3674 15.0508 11.1626 15.0361 11.1008C14.9994 10.8448 15.1388 11.1296 15.1199 10.9813C15.0738 10.7253 14.9355 10.5525 14.7721 10.3178C14.7197 10.2432 14.7197 10.2261 14.639 10.337C14.5919 10.449 14.5919 10.5429 14.6076 10.6304C14.5846 10.5984 14.5584 10.5621 14.5207 10.5152L14.2535 10.2848C14.2168 10.2581 14.1456 10.2176 14.0922 10.2208ZM17.7337 10.2602C17.718 10.2581 17.7023 10.2656 17.6813 10.2944C17.6447 10.3264 17.6059 10.3872 17.608 10.465C17.6153 10.5984 17.6394 10.736 17.6478 10.8704L17.6583 10.9237C17.6436 10.9066 17.631 10.8917 17.6237 10.8853C17.3649 10.608 17.7421 10.8384 17.5734 10.6261C17.432 10.4661 17.3901 10.417 17.2696 10.321C17.2068 10.2826 17.1711 10.2058 17.1512 10.336C17.1429 10.4501 17.1345 10.5834 17.1408 10.6794C17.1408 10.7328 17.1963 10.8341 17.2434 10.8928C17.4152 11.1093 17.5912 11.3386 17.7672 11.5776C17.8049 12.065 17.8144 12.512 17.851 13.0005C17.8468 13.2096 17.784 13.4869 17.7253 13.5125C17.7253 13.5125 17.6331 13.5658 17.5724 13.5072C17.5273 13.489 17.3503 13.2053 17.3503 13.2053C17.2591 13.12 17.1984 13.1445 17.1345 13.2053C16.9564 13.3802 16.8747 13.7088 16.7542 13.9349C16.7228 13.985 16.6358 14.0288 16.5384 13.9306C16.2901 13.585 16.4336 13.0933 16.4043 13.2202C16.1843 13.4741 16.2807 13.8944 16.3309 13.985C16.4043 14.1344 16.4629 14.2304 16.6033 14.3018C16.7343 14.3978 16.8338 14.3392 16.8904 14.2698C17.0203 14.1333 17.0224 13.7824 17.0831 13.713C17.125 13.585 17.2329 13.6064 17.2853 13.664C17.3377 13.7386 17.3964 13.7866 17.4708 13.8272C17.5923 13.936 17.7369 13.9552 17.8793 13.856C17.9768 13.8005 18.0407 13.728 18.0972 13.585C18.1601 13.4186 18.1287 12.544 18.115 12.0576L18.3874 12.4586C18.4251 12.8853 18.4429 13.3066 18.4293 13.7098C18.4209 13.7898 18.7049 13.4709 18.7017 13.3194C18.7017 13.1882 18.7038 13.0677 18.7017 12.9568C18.841 13.1808 18.9741 13.408 19.0998 13.6394C19.1784 13.5968 19.1522 13.1456 19.1029 13.0848C18.9709 12.8586 18.8012 12.6154 18.6703 12.4256C18.6441 12.1877 18.6095 11.9072 18.5928 11.8208C18.5687 11.6864 18.5435 11.4848 18.5058 11.3258C18.4953 11.265 18.4639 11.0666 18.4744 11.0485C18.489 11.0026 18.5477 11.0485 18.576 10.9973C18.6179 10.9493 18.4272 10.4426 18.3298 10.2997C18.2952 10.2357 18.2313 10.257 18.1538 10.3637C18.0805 10.432 18.1077 10.5898 18.1349 10.7402C18.2062 11.1242 18.2711 11.5125 18.3214 11.9029C18.2271 11.7589 18.1119 11.5861 17.9988 11.4208L17.9841 11.3461C17.9841 11.3376 17.9694 11.0314 17.9558 10.9589C17.9527 10.929 17.9453 10.9205 17.9768 10.9248C18.0082 10.9525 18.0124 10.9536 18.0323 10.9632C18.0658 10.9674 18.0951 10.912 18.0742 10.8597L17.7704 10.2901C17.7599 10.2762 17.7452 10.2634 17.7285 10.2613L17.7337 10.2602ZM8.33656 10.2709C8.27895 10.2688 8.21818 10.3029 8.24228 10.3722C8.22761 10.4096 8.35123 10.5354 8.37323 10.6048C8.39104 10.6549 8.35228 10.8128 8.39418 10.8288C8.43085 10.8448 8.48218 10.7178 8.50104 10.6016C8.51152 10.5376 8.50418 10.3178 8.35752 10.273C8.35018 10.2709 8.34285 10.2709 8.33447 10.2698L8.33656 10.2709ZM19.0432 10.2709C19.0296 10.273 19.0139 10.2922 18.9909 10.3456C18.9332 10.4416 18.9133 10.6122 18.9364 10.7616C19.0726 11.7109 19.1773 12.6304 19.1983 13.4709C19.1857 13.552 19.1815 13.5946 19.1459 13.6949C19.0642 13.8016 18.9741 13.9338 18.8892 13.9978C18.8054 14.0618 18.6252 14.1237 18.5666 14.1706C18.378 14.2794 18.378 14.4053 18.5289 14.4106C18.7887 14.3786 19.0967 14.3573 19.3083 14.032C19.3649 13.9413 19.4319 13.6938 19.434 13.5413C19.4549 12.656 19.4235 11.7866 19.2926 11.1456C19.2842 11.0816 19.2569 10.9397 19.2674 10.9216C19.2831 10.8768 19.368 10.9248 19.3984 10.8746C19.4434 10.8277 19.1784 10.4832 19.0862 10.336C19.0673 10.2997 19.0548 10.2688 19.0401 10.272L19.0432 10.2709ZM16.3163 10.2858C16.3058 10.288 16.2911 10.305 16.2618 10.3445C16.1885 10.5856 16.1633 10.7818 16.1916 10.9333C16.3802 11.9253 16.5688 12.8266 16.5394 13.7706C16.6274 13.7706 16.7301 13.5648 16.7741 13.36C16.7982 13.0773 16.7573 12.9056 16.751 12.7413C16.7437 12.5749 16.5667 11.2309 16.531 11.1061C16.487 10.8693 16.7028 11.0741 16.6798 10.9376C16.6044 10.7626 16.4179 10.5109 16.3613 10.3584C16.3404 10.3178 16.3362 10.2805 16.3194 10.2837L16.3163 10.2858ZM9.68066 10.305C9.65971 10.3093 9.63561 10.3285 9.62828 10.3584C9.62304 10.3797 9.63666 10.4149 9.6178 10.4256C9.60733 10.4362 9.56752 10.4288 9.56961 10.3722C9.56961 10.353 9.55599 10.3338 9.54866 10.3221C9.54028 10.3178 9.53504 10.3168 9.52037 10.3168C9.50256 10.3168 9.50256 10.3221 9.49314 10.3381C9.48895 10.353 9.48266 10.368 9.48266 10.385C9.48057 10.4064 9.47218 10.4117 9.45856 10.4149C9.4418 10.4149 9.44495 10.417 9.43237 10.4074C9.4219 10.4 9.41352 10.3968 9.41352 10.3818C9.41352 10.3658 9.40933 10.3392 9.40514 10.3306C9.3978 10.32 9.38628 10.3157 9.37371 10.3125C9.30457 10.3125 9.30037 10.3957 9.30352 10.4256C9.29828 10.432 9.29618 10.5749 9.39047 10.6154C9.51618 10.6773 9.75504 10.6506 9.74666 10.4426C9.74666 10.4245 9.74142 10.3626 9.73933 10.3466C9.72676 10.3146 9.70266 10.304 9.67961 10.3072L9.68066 10.305ZM11.3841 10.3072C11.3401 10.3093 11.3003 10.3221 11.2689 10.3392C11.185 10.4213 11.1641 10.5525 11.2311 10.6346C11.294 10.6666 11.36 10.7306 11.317 10.768C11.1348 10.9653 10.6602 11.297 10.6361 11.3578V11.3642H10.6403V11.3664C10.6644 11.3824 10.9619 11.3824 10.9944 11.3664H10.9965C11.0991 11.3269 11.5831 10.7637 11.5831 10.7637C11.558 10.7424 11.5349 10.7253 11.5098 10.7029C11.4826 10.6794 11.4857 10.656 11.5098 10.6325C11.6292 10.5621 11.5915 10.4053 11.5287 10.3338C11.4763 10.3104 11.4281 10.3018 11.3841 10.305V10.3072ZM15.8365 10.3072C15.8239 10.3104 15.8082 10.3285 15.7841 10.3818C15.7265 10.4778 15.6877 10.6432 15.6929 10.7978C15.8166 11.6725 15.8543 12.4373 15.936 13.312C15.9423 13.3973 15.9297 13.5189 15.8752 13.568C15.6699 13.7856 15.3755 14.0522 15.0549 14.176C15.0204 14.2154 15.1409 14.3829 15.2959 14.3829C15.5557 14.3509 15.7841 14.2037 15.9978 13.8122C16.0533 13.7216 16.1529 13.5264 16.1549 13.3749C16.1759 12.4874 16.113 11.7962 15.981 11.1562C15.9737 11.0922 15.9789 11.0176 15.9894 11.0005C16.0062 10.9792 16.0628 11.0005 16.0942 10.9504C16.1382 10.9034 15.9748 10.5205 15.8826 10.3744C15.8637 10.337 15.8532 10.3072 15.8365 10.3082V10.3072ZM8.93895 10.336C8.90333 10.3402 8.8698 10.368 8.85304 10.4106C8.8478 10.5493 8.84676 10.688 8.86352 10.8181C8.92637 11.0453 8.94418 11.2448 8.97457 11.4762C8.98504 11.7877 8.79857 11.6106 8.80695 11.457C8.84885 11.2565 8.83837 10.9418 8.80066 10.8618C8.76923 10.7818 8.73571 10.7626 8.66237 10.7765C8.60476 10.7722 8.45495 10.9365 8.41304 11.2138C8.41304 11.2138 8.37742 11.3546 8.36276 11.4805C8.3418 11.6224 8.24961 11.7237 8.18466 11.4613C8.12914 11.2693 8.09561 10.8 8.00237 10.9088C7.97514 11.2757 7.94371 11.9221 8.24961 11.9882C8.62047 12.0245 8.41514 11.3504 8.54923 11.2277C8.57542 11.169 8.62256 11.168 8.62571 11.2437V11.8165C8.62152 12.0021 8.74095 12.0576 8.83523 12.096C8.93266 12.0885 8.99657 12.0917 9.03428 12.1877L9.08142 13.1797C9.08142 13.1797 9.30561 13.2437 9.31609 12.6218C9.32656 12.256 9.24276 11.9498 9.29199 11.8784C9.29409 11.808 9.38209 11.8037 9.44285 11.8389C9.54028 11.9082 9.58323 11.9936 9.73409 11.9594C9.96457 11.8954 10.1008 11.7824 10.1039 11.6032C10.0934 11.4325 10.0725 11.2618 9.99914 11.0912C10.0096 11.0613 9.95723 10.9813 9.96771 10.9504C10.0075 11.0144 10.0704 11.0101 10.0829 10.9504C10.0452 10.8192 9.98447 10.6944 9.88599 10.641C9.80533 10.5664 9.68695 10.5824 9.64295 10.7338C9.62199 10.9088 9.7058 11.1157 9.83152 11.2853C9.85666 11.3514 9.89437 11.4613 9.87761 11.5605C9.81161 11.5989 9.74561 11.5818 9.68904 11.5232C9.68904 11.5232 9.5078 11.3845 9.5078 11.3525C9.55704 11.0378 9.51828 11.0005 9.49209 10.9152C9.47323 10.7936 9.41666 10.7552 9.37161 10.672C9.32552 10.6218 9.26371 10.6218 9.23542 10.672C9.15371 10.8138 9.19142 11.12 9.25009 11.2554C9.29199 11.3813 9.35695 11.4602 9.32657 11.4602C9.30142 11.5296 9.24904 11.5136 9.21133 11.4314C9.15895 11.2608 9.14637 11.009 9.14637 10.8949C9.13066 10.7541 9.11285 10.4522 9.02066 10.3754C8.99657 10.3413 8.96828 10.3296 8.93999 10.3328L8.93895 10.336ZM10.2401 10.336C10.2223 10.3402 10.2013 10.3509 10.1772 10.3573C10.0987 10.3818 10.0253 10.4512 10.0484 10.5856C10.1427 11.1616 10.2024 11.6021 10.2956 12.1781C10.3092 12.2464 10.2537 12.3349 10.1825 12.3274C10.0609 12.2421 10.0306 12.0714 9.82314 12.08C9.67228 12.08 9.50047 12.2485 9.47952 12.4085C9.45437 12.5365 9.44599 12.6752 9.47952 12.7861C9.58428 12.9141 9.71209 12.9013 9.82314 12.8714C9.91428 12.8341 9.99076 12.7434 10.0222 12.7648C10.0431 12.8 10.0201 13.0997 9.59266 13.3301C9.32866 13.4517 9.11914 13.4794 9.00599 13.2618C8.93685 13.1253 9.01228 12.6048 8.84047 12.7242C8.33133 14.0597 10.0316 14.2453 10.2212 12.7797C10.2338 12.737 10.2705 12.6965 10.2977 12.7072C10.3082 12.7125 10.3187 12.7285 10.3229 12.7584C10.283 14.0853 9.00704 14.177 8.79123 13.7589C8.73676 13.6608 8.72104 13.441 8.7158 13.3109C8.70533 13.2309 8.68647 13.185 8.66342 13.1669C8.61104 13.1274 8.5419 13.2309 8.52723 13.409C8.50628 13.553 8.51152 13.5925 8.51152 13.7312C8.58066 14.7797 10.2223 14.3285 10.4894 13.4645C10.6214 13.0165 10.4863 12.6784 10.5313 12.6368L10.5345 12.6346H10.5376L10.5429 12.6325C10.7063 12.8117 10.9347 12.6538 10.9849 12.593C11.0059 12.561 11.0604 12.5397 11.0981 12.5824C11.2238 12.6741 11.448 12.6304 11.4941 12.465C11.5213 12.305 11.5444 12.1408 11.5496 11.969C11.4658 11.9957 11.3988 12.0149 11.3715 12.0437C11.3652 12.0512 11.361 12.0597 11.3589 12.0682L11.338 12.2101C11.338 12.2154 11.3359 12.2186 11.3338 12.2208C11.3307 12.2282 11.3233 12.2336 11.3191 12.2368C11.2898 12.2528 11.2385 12.2442 11.2353 12.2005C11.1966 12.0192 11.0342 11.9957 10.9357 12.2784C10.8697 12.3317 10.7471 12.3424 10.7367 12.2613C10.7524 12.0714 10.6769 12.0458 10.5271 12.1354L10.3826 11.0261C10.4454 11.0229 10.502 11.0688 10.5607 10.9962C10.4978 10.8 10.3669 10.401 10.2925 10.3626H10.2904L10.2799 10.352C10.2799 10.3498 10.2768 10.3488 10.2747 10.3477L10.2705 10.3413C10.2663 10.3413 10.2621 10.3392 10.26 10.3381C10.2527 10.336 10.2464 10.336 10.239 10.336H10.2401ZM15.3127 10.3402C15.2477 10.3381 15.1765 10.3797 15.2037 10.4629C15.1869 10.5088 15.343 10.6624 15.3682 10.7456C15.4132 10.8736 15.3336 10.9984 15.3808 11.0165C15.4248 11.0357 15.4855 10.8832 15.5065 10.7413C15.5337 10.6261 15.4541 10.3914 15.3389 10.3434L15.3127 10.3413V10.3402ZM11.36 10.48C11.3893 10.4778 11.4249 10.5056 11.4438 10.544C11.4616 10.5866 11.4522 10.6261 11.4229 10.6336C11.3914 10.641 11.3516 10.6144 11.3328 10.5717C11.3139 10.529 11.3223 10.4896 11.3537 10.4821H11.36V10.48ZM18.6902 10.6741C18.6305 10.672 18.5645 10.7168 18.5917 10.8074C18.577 10.8565 18.7174 11.0229 18.7415 11.1146C18.7625 11.1786 18.7101 11.3877 18.752 11.4069C18.7918 11.4282 18.8463 11.2618 18.8672 11.1082C18.8798 11.0229 18.819 10.7296 18.7153 10.6773C18.708 10.6752 18.6996 10.673 18.6912 10.673L18.6902 10.6741ZM14.6359 10.7765C14.6432 10.801 14.6485 10.8256 14.6516 10.8512C14.6642 10.9045 14.6747 10.9578 14.6851 11.0133C14.639 10.9472 14.6013 10.8938 14.5835 10.8746C14.4788 10.7466 14.5856 10.7914 14.6359 10.7765ZM15.5714 11.2437C15.5484 11.248 15.5264 11.2682 15.519 11.3002C15.5128 11.3194 15.5274 11.3536 15.5086 11.3642C15.4981 11.3749 15.4562 11.3685 15.4593 11.3109C15.4593 11.2917 15.4457 11.2714 15.4384 11.2608C15.43 11.2554 15.4248 11.2533 15.4101 11.2533C15.3923 11.2533 15.3923 11.2586 15.3829 11.2746C15.3787 11.2896 15.3724 11.3045 15.3724 11.3226C15.3724 11.344 15.364 11.3504 15.3493 11.3546C15.3326 11.3546 15.3357 11.3546 15.3221 11.3472C15.3137 11.3365 15.3043 11.3344 15.3043 11.3194C15.3043 11.3034 15.3011 11.2789 15.2959 11.2682C15.2886 11.2576 15.2781 11.2544 15.2645 11.2501C15.1964 11.2501 15.1911 11.3312 15.1953 11.361C15.1911 11.3674 15.188 11.5125 15.2823 11.553C15.4101 11.6138 15.6489 11.585 15.6385 11.3781C15.6385 11.36 15.6332 11.2981 15.6322 11.2821C15.6186 11.2501 15.5945 11.2394 15.5725 11.2426L15.5714 11.2437ZM11.3076 11.2864C11.2929 11.2864 11.272 11.2906 11.2479 11.3056C11.1358 11.3674 11.0929 11.5509 11.1641 11.6576C11.2269 11.7536 11.3317 11.7184 11.3453 11.7184C11.4553 11.7333 11.5203 11.5093 11.5203 11.5093C11.5203 11.5093 11.5234 11.4453 11.3946 11.5648C11.338 11.5754 11.3317 11.5541 11.317 11.5221C11.3045 11.4656 11.3066 11.4048 11.3328 11.3482C11.3453 11.313 11.3328 11.2906 11.3076 11.2885V11.2864ZM17.3346 11.3152C17.2717 11.312 17.2057 11.3536 17.1879 11.44C17.1879 11.4912 17.2109 11.5189 17.2068 11.5658C17.2015 11.5925 17.1753 11.6085 17.1104 11.5786C17.1209 11.568 17.0685 11.4954 17.0685 11.4954C17.0192 11.4634 16.9532 11.4954 16.9092 11.5253C16.8851 11.5701 16.8673 11.6458 16.8946 11.7226C16.9658 11.8581 17.212 12.0885 17.3293 12.0906C17.3314 11.969 17.3429 11.8069 17.3503 11.7066C17.3524 11.6682 17.3608 11.6266 17.3974 11.617C17.433 11.6064 17.4949 11.6533 17.4949 11.6138C17.4886 11.537 17.4739 11.4218 17.432 11.3685C17.4089 11.3365 17.3723 11.3173 17.3356 11.3152H17.3346ZM12.3448 11.7386L12.3416 11.7418C12.3416 11.7418 12.3395 11.7418 12.3385 11.744C12.3259 11.7546 12.3112 11.776 12.2788 11.7973C12.2232 11.8613 12.2138 11.9072 12.2159 12.0352C12.2201 12.049 12.3207 12.337 12.4076 12.5386C12.4663 12.7488 12.5197 12.9898 12.4809 13.217C12.3448 13.5178 12.0724 13.7877 11.8073 13.9349C11.6711 13.9776 11.5559 13.9626 11.5245 13.9328C11.4469 13.8794 11.4459 13.7834 11.4511 13.7685V13.7653C11.6732 13.6074 11.9278 13.4794 12.1269 13.0538C12.1855 12.8906 12.2044 12.7925 12.1457 12.5418C12.1227 12.4458 12.0933 12.3712 12.0305 12.3029H12.0326C12.0703 12.2848 12.1688 12.3584 12.1845 12.3136C12.1604 12.192 12.0797 12.0309 11.9907 11.9477C11.911 11.873 11.823 11.8656 11.7518 11.9328C11.6701 11.9797 11.6533 12.1461 11.6921 12.2912C11.7361 12.4 11.8545 12.4192 11.9383 12.64C11.9404 12.6549 11.9666 12.8053 11.9247 12.8672C11.889 12.976 11.448 13.3301 11.4166 13.3514L11.4134 13.3536L11.4113 13.3557H11.4092H11.4071V13.3525C11.405 13.344 11.4071 13.3205 11.4071 13.2853C11.404 13.2192 11.4312 13.0688 11.4281 13.0421V13.04C11.2814 13.136 11.2322 13.4293 11.206 13.5168C10.8362 13.776 10.4171 13.969 10.1751 14.2314C10.0494 14.4341 11.0426 14.0032 11.1578 13.9509L11.1609 13.9541C11.184 13.9786 11.185 14.064 11.251 14.1418C11.3558 14.2837 11.5737 14.3712 11.7874 14.3168C12.1457 14.1856 12.3531 13.937 12.5627 13.6608C12.592 13.6181 12.6391 13.5818 12.6831 13.616C12.8267 13.9445 13.2436 14.1792 13.781 14.2026C13.9068 14.049 13.847 13.9733 13.7968 13.9413C13.781 13.9306 13.5296 13.8304 13.4898 13.7312C13.4657 13.6394 13.5254 13.5573 13.6449 13.4965C13.9906 13.4538 14.33 13.4058 14.6589 13.2981C14.6621 13.185 14.727 13.0176 14.771 12.944C14.8025 12.8938 14.8203 12.8885 14.8276 12.8821V12.88H14.8297V12.8768V12.8661L14.7731 12.832L13.67 12.8277C13.6564 12.8224 13.6469 12.817 13.6407 12.8117L13.6386 12.8085C13.6386 12.8085 13.6365 12.8085 13.6365 12.8064C13.6365 12.8042 13.6344 12.8042 13.6344 12.8042V12.8053V12.8032V12.801V12.7989L13.6365 12.7957C13.6417 12.7893 13.6553 12.7818 13.671 12.7744C13.935 12.7392 14.4023 12.6613 14.4337 12.2037C14.4285 11.9648 14.3331 11.809 14.0461 11.7664C13.8345 11.7824 13.6836 11.9904 13.7077 12.2186C13.6972 12.2794 13.7287 12.4 13.6658 12.4138C13.2614 12.4522 12.8193 12.7104 12.8047 12.896H12.8026H12.8005H12.7984C12.7984 12.8981 12.7963 12.8981 12.7952 12.8981H12.791H12.7889H12.7848C12.7586 12.8896 12.725 12.8448 12.7303 12.784C12.7146 12.464 12.6119 12.1013 12.4527 11.824C12.395 11.7653 12.3689 11.7418 12.3542 11.7386H12.351H12.3479H12.3458H12.3448ZM13.4008 11.9072C13.3798 11.9114 13.3557 11.9306 13.3484 11.9626C13.3431 11.984 13.3589 12.0181 13.34 12.0288C13.3295 12.0394 13.2876 12.033 13.2897 11.9754C13.2897 11.9573 13.2761 11.937 13.2688 11.9253C13.2604 11.92 13.2551 11.9189 13.2415 11.9189C13.2237 11.9189 13.2227 11.9232 13.2132 11.9381C13.208 11.953 13.2028 11.9701 13.2028 11.9861C13.2007 12.0074 13.1923 12.0138 13.1787 12.016C13.1619 12.016 13.1661 12.0192 13.1525 12.0106C13.1441 12.0021 13.1336 11.9978 13.1336 11.9829C13.1336 11.9669 13.1305 11.9402 13.1263 11.9296C13.1189 11.9221 13.1074 11.9189 13.0949 11.9146C13.0247 11.9146 13.0215 11.9946 13.0247 12.0256C13.0194 12.0309 13.0163 12.1749 13.1106 12.2154C13.2363 12.2773 13.5401 12.241 13.4668 12.0416C13.4668 12.0234 13.4615 11.9616 13.4605 11.9456C13.4469 11.9136 13.4228 11.9029 13.3997 11.9061L13.4008 11.9072ZM17.6593 12.0853H17.6489C17.6489 12.0853 17.0601 12.512 17.0465 12.5269C16.9878 12.5802 17.0171 12.7648 17.0465 12.7434C17.0884 12.7594 17.6803 12.3509 17.6688 12.3029C17.6949 12.305 17.7075 12.0928 17.6583 12.0842L17.6593 12.0853ZM13.957 12.1493C13.9801 12.1461 14.0115 12.1546 14.0409 12.1706C14.0859 12.1984 14.1142 12.2368 14.1089 12.2666V12.2709C14.1069 12.2709 14.1069 12.2709 14.1069 12.273V12.2752C14.1069 12.2752 14.1048 12.2752 14.1048 12.2773C14.1048 12.2794 14.1016 12.2816 14.0995 12.2837C14.0786 12.305 14.0304 12.3008 13.9843 12.273C13.9403 12.2485 13.9141 12.209 13.9162 12.1813V12.1781L13.9214 12.1674C13.9214 12.1674 13.9214 12.1653 13.9235 12.1642L13.9288 12.1578C13.9361 12.1525 13.9455 12.1472 13.957 12.1472V12.1493ZM8.80485 12.256C8.50104 12.2624 8.05371 12.6634 8.04218 12.8853L9.00599 12.416C8.95361 12.3349 9.00285 12.2624 8.80485 12.256ZM9.79276 12.3946C9.82209 12.3968 9.85352 12.4117 9.87028 12.4544C9.88495 12.4938 9.87028 12.5344 9.85247 12.5546V12.5578C9.8378 12.5749 9.7938 12.5685 9.76133 12.5685C9.72256 12.5664 9.70371 12.56 9.68066 12.528C9.66809 12.4906 9.70161 12.4554 9.71733 12.4298L9.72466 12.4192C9.73514 12.4085 9.75609 12.4 9.77704 12.3978L9.79066 12.3957L9.79276 12.3946ZM17.5451 12.5194C17.4896 12.5258 17.4383 12.5781 17.4613 12.6613C17.4467 12.7104 17.5347 12.8821 17.5588 12.9728C17.5797 13.0368 17.5315 13.2213 17.5745 13.2394C17.6143 13.2608 17.718 13.1328 17.7148 12.9685C17.7253 12.8832 17.6855 12.5738 17.5818 12.5226C17.5692 12.5194 17.5567 12.5184 17.5441 12.5194H17.5451ZM10.9619 12.8224C10.9137 12.8256 10.8708 12.8512 10.8907 12.9205C10.8875 12.9696 11.0269 13.0304 11.0342 13.1445C11.053 13.1936 11.0028 13.3472 11.0447 13.36C11.0824 13.376 11.1348 13.2533 11.1547 13.1424C11.1651 13.0805 11.1065 12.865 11.008 12.8256C10.9923 12.8213 10.9766 12.8202 10.9609 12.8213L10.9619 12.8224ZM12.9314 13.0954H12.944C13.0676 13.1296 13.2478 13.1338 13.4049 13.1488C13.5338 13.1594 13.5967 13.2597 13.4783 13.3034C13.3589 13.344 13.2447 13.3781 13.2447 13.5509C13.2593 13.6362 13.2551 13.681 13.2426 13.7002C13.2426 13.7034 13.2394 13.7056 13.2384 13.7066C13.2384 13.7066 13.2384 13.7088 13.2363 13.7088V13.7109H13.2331L13.2258 13.7141H13.2206C13.1923 13.7194 13.1514 13.6928 13.121 13.6757C13.0477 13.6224 12.8434 13.4944 12.8141 13.217C12.8099 13.153 12.856 13.0997 12.9293 13.0944L12.9314 13.0954ZM8.11866 13.3088C8.11133 13.3088 8.09771 13.3322 8.07676 13.3589C7.89447 13.6522 7.87771 14.0906 7.97828 14.2229C8.03066 14.2837 8.11866 14.3114 8.18361 14.2922C8.29885 14.2421 8.34809 14.0064 8.3198 13.921C8.28314 13.8602 8.25276 13.8506 8.21504 13.9018C8.13437 14.0672 8.0998 13.953 8.09456 13.8592C8.08199 13.6853 8.09876 13.5232 8.11761 13.3952C8.12809 13.3312 8.12809 13.3066 8.11761 13.3066L8.11866 13.3088ZM14.2965 13.6949C14.2829 13.6949 14.2692 13.697 14.2546 13.7056C14.2514 13.7056 14.1247 13.7909 14.0838 13.8528C14.0587 13.872 14.0629 13.888 14.0691 13.9221C14.088 13.968 14.1215 13.9541 14.1613 13.9328C14.2137 13.9242 14.2378 13.9594 14.2347 14.0224C14.2106 14.1024 14.2451 14.1312 14.2451 14.1365C14.2451 14.1408 14.2944 14.1845 14.353 14.1504C14.4756 14.1024 14.5521 14.0544 14.7249 14.017C14.77 14.017 14.7668 13.8933 14.6956 13.889C14.6013 13.8933 14.5175 13.8997 14.4232 13.9744C14.3656 13.9872 14.3562 13.9509 14.3426 13.9189C14.3279 13.84 14.3761 13.7845 14.3656 13.7248C14.3677 13.728 14.3363 13.6992 14.2954 13.697L14.2965 13.6949ZM18.2523 13.8442L18.1685 13.8528C18.1308 13.8602 18.1182 13.8773 18.1109 13.9242C18.114 13.9936 18.1559 13.9904 18.1999 14.0181C18.225 14.0501 18.2418 14.08 18.1978 14.1354C18.1559 14.1728 18.1276 14.1941 18.0857 14.2314C18.0679 14.2656 18.0543 14.3168 18.115 14.3338C18.225 14.3658 18.4796 14.1973 18.4796 14.1952C18.5215 14.1632 18.5069 14.1024 18.5037 14.1024C18.4786 14.0746 18.4241 14.0917 18.3885 14.0864C18.3707 14.0864 18.3151 14.0778 18.3403 14.0266C18.3633 13.9946 18.3717 13.9765 18.3874 13.937C18.4031 13.8986 18.3874 13.873 18.3267 13.8517C18.2952 13.8453 18.2743 13.8432 18.2502 13.8442H18.2523ZM16.7301 17.9616C17.0129 17.9754 17.2769 17.9648 17.5577 17.9786C17.6038 18.017 17.5818 18.1066 17.5525 18.1216L17.5472 18.1237H17.5441H17.5399L17.3031 18.1173V18.1034C17.2801 18.0373 17.1229 18.0416 17.0852 18.0928V18.096C17.0831 18.096 17.0821 18.0992 17.0821 18.1002L17.08 18.1056V18.1184C16.9543 18.1344 16.8443 18.1141 16.7207 18.1098C16.684 18.064 16.6892 17.9818 16.7311 17.9605L16.7301 17.9616Z" fill="white"/>
</svg>
