<svg xmlns="http://www.w3.org/2000/svg" width="229" height="172" viewBox="0 0 229 172">
    <g fill="none" fill-rule="evenodd" transform="translate(1 1)">
        <rect width="227" height="170" fill="#FFF" stroke="#E1E1E1" rx="5"/>
        <text fill="#000" font-family="ArialMT, Arial" font-size="13">
            <tspan x="16" y="77">Ежедневно на линию выходят </tspan> <tspan x="16" y="95">более 4 500 автобусов, </tspan> <tspan x="16" y="113">и осуществляются перевозки </tspan> <tspan x="16" y="131">более 1,5 млн пассажиров </tspan> <tspan x="16" y="149">на маршрутах. </tspan>
        </text>
        <g fill="#2F3236">
            <path d="M28.48 36.684c-5.016 0-8.298 3.604-8.298 8.06 0 4.45 3.504 8.06 7.836 8.06v-2.006c-3.252 0-5.886-2.71-5.886-6.054 0-3.345 2.616-6.054 6.402-6.054h9.804v-2.018l-9.858.012"/>
            <path d="M28.588 32.63c-7.002 0-12.348 5.424-12.348 12.114h1.968c0-5.573 4.386-10.09 10.218-10.09h9.912v-2.018l-9.75-.007zm-4.494 12.114c0 2.228 1.758 4.036 3.924 4.036s3.924-1.808 3.924-4.036H29.98c0 1.117-.876 2.018-1.962 2.018-1.086 0-1.962-.901-1.962-2.018 0-1.247.954-2.018 2.37-2.018h9.912v-2.018h-9.996c-2.532 0-4.248 1.808-4.248 4.036zm154.866-8.307v-1.752h4.14v-2.37h-11.184v2.37h4.182v1.752h2.862zm-23.262 5.974h3.204l-2.136-4.042H146.74l-2.142 4.042h3.12l1.236-2.326h5.508l1.236 2.326zm-4.182-7.726h.426l.942 1.752h2.862l-2.178-4.122h-3.672l-2.178 4.122h2.904l.894-1.752zM139.48 40.3c-1.746 0-2.772-.834-3.114-1.932h-2.904c.516 2.765 2.646 4.345 5.898 4.345 2.472 0 4.134-.834 5.154-2.32l-1.746-1.673c-.852 1.098-1.836 1.58-3.288 1.58zm0-5.882c1.41 0 2.604.66 3.246 1.623l1.788-1.752c-1.062-1.272-2.64-2.284-4.992-2.284-3.498 0-5.76 1.889-6.06 4.431h2.904c.342-1.271 1.536-2.018 3.114-2.018zm-87.228-2.104l-3.756 4.56h-.384l-3.888-4.56h-2.388V42.41h2.862v-5.838l2.646 3.067h1.794l2.646-3.067v5.838h2.856V32.315h-2.388zm63.372 10.096h3.204l-2.136-4.042h-10.026l-2.136 4.042h3.114l1.242-2.326h5.502l1.236 2.326zm-4.176-7.726h.426l.936 1.752h2.856l-2.172-4.122h-3.672l-2.178 4.122h2.904l.9-1.752zM75.982 40.3c-1.668 0-2.778-.834-3.12-1.932h-2.898c.51 2.765 2.682 4.345 5.76 4.345 2.646 0 4.35-.92 5.508-2.586l-1.836-1.673c-.732 1.235-1.878 1.846-3.414 1.846zm-.132-5.882c1.326 0 2.346.482 2.988 1.234l1.578-1.894c-1.02-1.05-2.388-1.753-4.65-1.753-3.288 0-5.502 1.889-5.802 4.431h2.898c.342-1.271 1.494-2.018 2.988-2.018zm44.34 3.95v4.042h2.988v-2.326h5.082v2.326h2.988V38.37H120.19zm8.07-1.932h2.988v-4.122h-2.988v4.122zm-8.07 0h2.988v-4.122h-2.988v4.122zm43.02 0v-1.752h3.288c.51 0 .936.216.936.746 0 .39-.168.784-.51 1.006h2.562c.342-.259.72-.92.72-1.71 0-1.184-.936-2.412-3.024-2.412h-6.828v4.122h2.856zm0 3.598V38.37h-2.856v4.042h8.196c2.304 0 3.114-1.277 3.114-2.5 0-.66-.3-1.277-.732-1.542h-2.22c.216.179.39.438.39.833 0 .438-.3.833-1.158.833h-4.734zm-74.898-3.598v-1.752h4.14v-2.37H81.274v2.37h4.176v1.752h2.862zm-2.862 5.974h2.862V38.37H85.45v4.042zm90.648 0h2.862V38.37h-2.862v4.042zm-79.122-5.974v-1.752h3.546c1.362 0 1.704.746 1.704 1.752h2.604v-.259c0-2.154-.984-3.863-3.798-3.863H94.12v4.122h2.856zM94.12 38.37v4.042h2.856v-2.326h4.398c1.236 0 2.22-.704 2.898-1.716H94.12zm-31.71-3.993c1.578 0 2.646.79 2.856 2.061h2.904c-.384-2.721-2.472-4.43-5.718-4.43-3.588 0-5.46 1.709-5.844 4.43h2.898c.258-1.271 1.32-2.061 2.904-2.061zm.042 5.925c-1.536 0-2.562-.611-2.946-1.932h-2.898c.42 2.808 2.556 4.345 5.67 4.345 3.246 0 5.34-1.358 5.892-4.345h-2.904c-.342 1.32-1.41 1.932-2.814 1.932zm127.476.049c-2.22 0-3.204-1.407-3.204-3.036 0-1.617.942-2.938 3.162-2.938 2.172 0 3.114 1.32 3.114 3.03 0 1.623-.942 2.944-3.072 2.944zm-.042-8.344c-4.314 0-6.018 2.679-6.018 5.4 0 2.808 1.92 5.308 5.928 5.308 4.272 0 6.066-2.364 6.066-5.4 0-2.716-1.668-5.308-5.976-5.308zM57.22 51.181h1.272a.774.774 0 0 0 .534-.185c.138-.124.204-.297.204-.525 0-.222-.066-.401-.204-.53a.778.778 0 0 0-.534-.192H57.22v1.432zm1.296-1.987a1.316 1.316 0 0 1 .93.352c.114.11.204.246.276.407.066.154.102.327.102.518s-.036.37-.102.525a1.319 1.319 0 0 1-.276.395c-.12.11-.258.197-.414.253-.156.061-.33.092-.516.092H57.22v.765h-.594v-3.307h1.89zm4.944 0v.543h-2.274v.802h2.052v.543h-2.052v.864h2.364v.555h-2.958v-3.307h2.868zm3.864 0v.543h-2.328V52.5h-.594v-3.307h2.922zm1.2 0l.486 1.431c.03.08.072.136.132.18a.412.412 0 0 0 .21.055h.966l.528-1.666h.594l-.846 2.635a.999.999 0 0 1-.336.487.879.879 0 0 1-.552.185h-.864v-.524h.828a.444.444 0 0 0 .234-.062.325.325 0 0 0 .156-.197l.096-.315h-.84a.876.876 0 0 1-.546-.167.975.975 0 0 1-.33-.493l-.522-1.55h.606zm6.762 0V52.5h-.588v-2.764h-1.434l-.354 1.944c-.048.284-.156.487-.318.623a.985.985 0 0 1-.624.197h-.324v-.567h.282a.434.434 0 0 0 .276-.08.408.408 0 0 0 .138-.254l.438-2.406h2.508zm2.118.555a.744.744 0 0 0-.534.198c-.132.13-.198.302-.198.524 0 .228.066.401.198.518a.79.79 0 0 0 .534.18h1.272v-1.42h-1.272zm1.86 2.752h-.588v-.777h-1.398l-.414.777h-.648l.504-.92a1.215 1.215 0 0 1-.48-.443 1.3 1.3 0 0 1-.162-.667c0-.191.03-.364.096-.518.066-.16.156-.297.276-.408.114-.11.252-.197.408-.259.162-.062.33-.092.516-.092h1.89V52.5zm1.5-1.32h1.266a.78.78 0 0 0 .54-.185c.132-.124.204-.297.204-.525a.717.717 0 0 0-.204-.53.783.783 0 0 0-.54-.192h-1.266v1.432zm1.296-1.987a1.316 1.316 0 0 1 .93.352c.114.11.204.246.276.407.066.154.096.327.096.518s-.03.37-.096.525a1.235 1.235 0 0 1-.69.648c-.162.061-.33.092-.516.092h-1.296v.765h-.594v-3.307h1.89zm2.682 0v1.32H86.8v-1.32h.594V52.5H86.8v-1.444h-2.058v1.444h-.588v-3.307h.588zm7.008 0h.594V52.5h-.594v-3.307zm-2.868 2.752h1.17c.24 0 .426-.062.558-.185.132-.124.198-.296.198-.53 0-.235-.066-.408-.198-.525-.132-.118-.318-.173-.558-.173h-1.17v1.413zm0-2.752v.796H90.1c.186 0 .36.03.516.086.162.056.294.142.414.247.114.111.204.24.27.395.066.154.102.32.102.512 0 .191-.036.37-.102.525a1.23 1.23 0 0 1-.27.4c-.12.112-.252.198-.414.254-.156.062-.33.092-.516.092h-1.806v-3.307h.588zm7.23 0v.543h-2.28v.802h2.052v.543h-2.052v.864h2.37v.555h-2.958v-3.307h2.868zm3.84 0l1.254 2.598h.03l1.26-2.598h.834V52.5h-.588v-2.554h-.06l-1.218 2.554h-.528l-1.212-2.554h-.066V52.5h-.564v-3.307h.858zm5.226 2.24h1.728l-.672-1.697h-.366l-.69 1.697zm1.446-2.24l1.362 3.307h-.618l-.222-.524h-2.184l-.222.524h-.63l1.398-3.307h1.116zm2.736 1.987h1.272a.774.774 0 0 0 .534-.185c.138-.124.204-.297.204-.525 0-.222-.066-.401-.204-.53a.778.778 0 0 0-.534-.192h-1.272v1.432zm1.296-1.987c.186 0 .36.03.516.092.162.062.294.148.414.26.114.11.21.246.276.407.066.154.102.327.102.518s-.036.37-.102.525a1.319 1.319 0 0 1-.276.395c-.12.11-.252.197-.414.253-.162.061-.33.092-.516.092h-1.296v.765h-.594v-3.307h1.89zm2.676 0v2.764h1.41v-2.764h.576v2.764h1.404v-2.764h.582V52.5h-4.554v-3.307h.582zm5.466 1.987h1.272a.774.774 0 0 0 .534-.185c.138-.124.204-.297.204-.525 0-.222-.066-.401-.204-.53a.778.778 0 0 0-.534-.192h-1.272v1.432zm1.296-1.987a1.316 1.316 0 0 1 .93.352c.114.11.21.246.276.407.066.154.102.327.102.518s-.036.37-.102.525a1.319 1.319 0 0 1-.276.395c-.12.11-.258.197-.414.253-.156.061-.33.092-.516.092h-1.296v.765h-.594v-3.307h1.89zm2.364 0l.486 1.431c.024.08.072.136.132.18.06.036.132.055.21.055h.96l.534-1.666h.594l-.852 2.635a.961.961 0 0 1-.336.487.85.85 0 0 1-.546.185h-.864v-.524h.828a.475.475 0 0 0 .234-.062c.072-.037.12-.105.15-.197l.102-.315h-.84a.894.894 0 0 1-.552-.167 1.014 1.014 0 0 1-.33-.493l-.522-1.55h.612zm6.84 0v.543h-1.362V52.5h-.594v-2.764h-1.362v-.543h3.318zm4.224 0h.594V52.5h-.594v-3.307zm-2.868 2.752h1.17c.24 0 .426-.062.558-.185.132-.124.192-.296.192-.53 0-.235-.06-.408-.192-.525-.132-.118-.318-.173-.558-.173h-1.17v1.413zm0-2.752v.796h1.218c.18 0 .354.03.516.086.156.056.294.142.408.247.12.111.21.24.276.395.066.154.096.32.096.512 0 .191-.03.37-.096.525-.066.154-.156.29-.276.4a1.12 1.12 0 0 1-.408.254 1.445 1.445 0 0 1-.516.092h-1.812v-3.307h.594zm9.534 0V52.5h-.588v-2.764h-1.956V52.5h-.594v-3.307h3.138zm1.422 1.654c0 .19.03.364.09.512.066.148.15.277.258.382.108.105.234.18.378.235.144.055.306.08.474.08.168 0 .33-.025.474-.08.15-.056.276-.13.384-.235a1.254 1.254 0 0 0 .348-.895c0-.19-.03-.357-.096-.506a1.034 1.034 0 0 0-.636-.617 1.321 1.321 0 0 0-.474-.08c-.168 0-.33.025-.474.08-.144.056-.27.13-.378.235a1.148 1.148 0 0 0-.258.382c-.06.149-.09.315-.09.507zm2.994 0c0 .265-.042.506-.138.715-.089.21-.22.397-.384.55a1.864 1.864 0 0 1-.57.351 2 2 0 0 1-.702.118 1.99 1.99 0 0 1-.696-.118 1.824 1.824 0 0 1-.576-.351 1.589 1.589 0 0 1-.378-.55 1.71 1.71 0 0 1-.144-.715c0-.26.048-.5.144-.71.09-.216.216-.395.378-.55.162-.148.354-.265.576-.351.216-.08.45-.117.696-.117a2 2 0 0 1 .702.117c.216.086.408.203.57.352.162.154.294.333.384.549.096.21.138.45.138.71zm1.698 1.11h1.83v-2.234h-1.434l-.396 2.234zm2.418-2.764v2.764l.39-.006v1.21h-.504l-.054-.66h-2.736l-.048.66h-.504v-1.204h.414l.546-2.764h2.496zm2.034 0l1.254 2.598h.03l1.254-2.598h.84V52.5h-.594v-2.554h-.054l-1.218 2.554h-.528l-1.212-2.554h-.066V52.5h-.564v-3.307h.858zm4.794 1.654c0 .19.03.364.09.512a1.094 1.094 0 0 0 .636.617c.144.055.3.08.474.08.168 0 .324-.025.474-.08a1.12 1.12 0 0 0 .384-.235c.108-.105.192-.234.252-.382s.096-.321.096-.512a1.33 1.33 0 0 0-.096-.507 1.053 1.053 0 0 0-.252-.382 1.12 1.12 0 0 0-.384-.235 1.344 1.344 0 0 0-.474-.08c-.174 0-.33.025-.474.08a1.094 1.094 0 0 0-.636.617c-.06.149-.09.315-.09.507zm2.994 0c0 .265-.048.506-.138.715-.089.21-.22.397-.384.55a1.864 1.864 0 0 1-.57.351c-.222.08-.45.118-.702.118a1.99 1.99 0 0 1-.696-.118 1.824 1.824 0 0 1-.576-.351 1.69 1.69 0 0 1-.384-.55c-.09-.21-.138-.45-.138-.715 0-.26.048-.5.138-.71a1.69 1.69 0 0 1 .384-.55c.162-.148.354-.265.576-.351.216-.08.45-.117.696-.117.252 0 .48.037.702.117.216.086.408.203.57.352.162.154.294.333.384.549.09.21.138.45.138.71zm3.672-.624a1.338 1.338 0 0 0-.468-.42 1.48 1.48 0 0 0-.678-.141c-.18 0-.342.024-.486.08a1.03 1.03 0 0 0-.372.24c-.102.105-.18.229-.24.377a1.405 1.405 0 0 0 .006.969.992.992 0 0 0 .246.376.969.969 0 0 0 .372.247c.144.062.3.087.474.087.27 0 .492-.05.672-.148.18-.093.336-.235.474-.42l.462.284a1.795 1.795 0 0 1-.648.617c-.264.142-.576.21-.948.21a2 2 0 0 1-.702-.118 1.586 1.586 0 0 1-.57-.345 1.564 1.564 0 0 1-.378-.543 1.87 1.87 0 0 1-.132-.728c0-.266.042-.507.138-.723.09-.216.216-.394.378-.543.162-.154.348-.265.57-.345.216-.08.45-.117.696-.117.366 0 .678.067.942.21.264.141.48.345.648.617l-.456.277zm1.854-1.03v1.283h1.116l.852-1.283h.678l-1.02 1.53 1.098 1.777h-.696l-.894-1.474h-1.134V52.5h-.594v-3.307h.594zm3.732 1.654a1.254 1.254 0 0 0 .348.894c.108.105.234.18.378.235.15.055.306.08.474.08.174 0 .33-.025.474-.08.15-.056.276-.13.384-.235.108-.105.192-.234.258-.382.06-.148.09-.321.09-.512 0-.192-.03-.358-.09-.507a1.066 1.066 0 0 0-.642-.617c-.144-.055-.3-.08-.474-.08-.168 0-.324.025-.474.08a1.053 1.053 0 0 0-.63.617 1.225 1.225 0 0 0-.096.507zm3 0c0 .265-.048.506-.138.715a1.69 1.69 0 0 1-.384.55 1.824 1.824 0 0 1-.576.351 1.99 1.99 0 0 1-.696.118c-.252 0-.48-.037-.702-.118a1.864 1.864 0 0 1-.57-.351 1.604 1.604 0 0 1-.384-.55 1.708 1.708 0 0 1-.138-.715c0-.26.042-.5.138-.71.09-.216.222-.395.384-.55.162-.148.354-.265.57-.351.222-.08.45-.117.702-.117.246 0 .48.037.696.117.222.086.414.203.576.352.162.154.288.333.384.549.09.21.138.45.138.71zm1.416 1.11h1.578c.174 0 .3-.049.384-.135a.474.474 0 0 0 .126-.327.46.46 0 0 0-.12-.334.456.456 0 0 0-.33-.123h-1.638v.92zm0-1.45h1.512a.305.305 0 0 0 .258-.117.432.432 0 0 0 .096-.26.383.383 0 0 0-.024-.147.258.258 0 0 0-.072-.124.315.315 0 0 0-.138-.086.515.515 0 0 0-.21-.037h-1.422v.771zm1.458-1.314c.144 0 .276.018.396.061a.86.86 0 0 1 .312.173c.084.074.15.167.198.265a.845.845 0 0 1 .072.358c0 .272-.09.476-.27.605a.773.773 0 0 1 .366.315.94.94 0 0 1 .132.512 1.009 1.009 0 0 1-.63.938c-.126.05-.27.08-.432.08h-2.19v-3.307h2.046zm2.586 2.752h1.17c.24 0 .426-.062.558-.185.132-.124.198-.296.198-.53 0-.235-.066-.408-.198-.525-.132-.118-.318-.173-.558-.173h-1.17v1.413zm0-2.752v.796h1.218c.186 0 .36.03.516.086.156.056.294.142.408.247.12.111.21.24.276.395.066.154.096.32.096.512 0 .191-.03.37-.096.525-.066.154-.156.29-.276.4a1.12 1.12 0 0 1-.408.254c-.156.062-.33.092-.516.092h-1.812v-3.307h.594zm4.518.555a.734.734 0 0 0-.534.198c-.138.13-.204.302-.204.524 0 .228.066.401.204.518.132.118.312.18.534.18h1.266v-1.42h-1.266zm1.86 2.752h-.594v-.777h-1.398l-.408.777h-.654l.51-.92a1.176 1.176 0 0 1-.48-.443 1.302 1.302 0 0 1-.168-.667 1.306 1.306 0 0 1 .372-.926c.114-.11.252-.197.414-.259.156-.062.33-.092.516-.092h1.89V52.5z"/>
        </g>
        <text fill="#000" font-family="ArialMT, Arial" font-size="13" opacity=".4">
            <tspan x="16" y="22">Наши партнеры</tspan>
        </text>
    </g>
</svg>
